<svg width="79" height="19" viewBox="0 0 79 19" fill="none" xmlns="http://www.w3.org/2000/svg">
<path d="M6.26 15.24C5.15333 15.24 4.08 15.0933 3.04 14.8C2.01333 14.4933 1.18667 14.1 0.56 13.62L1.66 11.18C2.26 11.62 2.97333 11.9733 3.8 12.24C4.62667 12.5067 5.45333 12.64 6.28 12.64C7.2 12.64 7.88 12.5067 8.32 12.24C8.76 11.96 8.98 11.5933 8.98 11.14C8.98 10.8067 8.84667 10.5333 8.58 10.32C8.32667 10.0933 7.99333 9.91333 7.58 9.78C7.18 9.64667 6.63333 9.5 5.94 9.34C4.87333 9.08667 4 8.83333 3.32 8.58C2.64 8.32667 2.05333 7.92 1.56 7.36C1.08 6.8 0.84 6.05333 0.84 5.12C0.84 4.30667 1.06 3.57333 1.5 2.92C1.94 2.25333 2.6 1.72667 3.48 1.34C4.37333 0.953333 5.46 0.76 6.74 0.76C7.63333 0.76 8.50667 0.866666 9.36 1.08C10.2133 1.29333 10.96 1.6 11.6 2L10.6 4.46C9.30667 3.72667 8.01333 3.36 6.72 3.36C5.81333 3.36 5.14 3.50667 4.7 3.8C4.27333 4.09333 4.06 4.48 4.06 4.96C4.06 5.44 4.30667 5.8 4.8 6.04C5.30667 6.26667 6.07333 6.49333 7.1 6.72C8.16667 6.97333 9.04 7.22667 9.72 7.48C10.4 7.73333 10.98 8.13333 11.46 8.68C11.9533 9.22667 12.2 9.96667 12.2 10.9C12.2 11.7 11.9733 12.4333 11.52 13.1C11.08 13.7533 10.4133 14.2733 9.52 14.66C8.62667 15.0467 7.54 15.24 6.26 15.24ZM21.1339 14.48C20.8272 14.7067 20.4472 14.88 19.9939 15C19.5539 15.1067 19.0872 15.16 18.5939 15.16C17.3139 15.16 16.3206 14.8333 15.6139 14.18C14.9206 13.5267 14.5739 12.5667 14.5739 11.3V6.88H12.9139V4.48H14.5739V1.86H17.6939V4.48H20.3739V6.88H17.6939V11.26C17.6939 11.7133 17.8072 12.0667 18.0339 12.32C18.2739 12.56 18.6072 12.68 19.0339 12.68C19.5272 12.68 19.9472 12.5467 20.2939 12.28L21.1339 14.48ZM27.2253 4.08C28.892 4.08 30.172 4.48 31.0653 5.28C31.9586 6.06667 32.4053 7.26 32.4053 8.86V15H29.4853V13.66C28.8986 14.66 27.8053 15.16 26.2053 15.16C25.3786 15.16 24.6586 15.02 24.0453 14.74C23.4453 14.46 22.9853 14.0733 22.6653 13.58C22.3453 13.0867 22.1853 12.5267 22.1853 11.9C22.1853 10.9 22.5586 10.1133 23.3053 9.54C24.0653 8.96667 25.232 8.68 26.8053 8.68H29.2853C29.2853 8 29.0786 7.48 28.6653 7.12C28.252 6.74667 27.632 6.56 26.8053 6.56C26.232 6.56 25.6653 6.65333 25.1053 6.84C24.5586 7.01333 24.092 7.25333 23.7053 7.56L22.5853 5.38C23.172 4.96667 23.872 4.64667 24.6853 4.42C25.512 4.19333 26.3586 4.08 27.2253 4.08ZM26.9853 13.06C27.5186 13.06 27.992 12.94 28.4053 12.7C28.8186 12.4467 29.112 12.08 29.2853 11.6V10.5H27.1453C25.8653 10.5 25.2253 10.92 25.2253 11.76C25.2253 12.16 25.3786 12.48 25.6853 12.72C26.0053 12.9467 26.4386 13.06 26.9853 13.06ZM38.2091 5.66C38.5824 5.14 39.0824 4.74667 39.7091 4.48C40.3491 4.21333 41.0824 4.08 41.9091 4.08V6.96C41.5624 6.93333 41.3291 6.92 41.2091 6.92C40.3157 6.92 39.6157 7.17333 39.1091 7.68C38.6024 8.17333 38.3491 8.92 38.3491 9.92V15H35.2291V4.24H38.2091V5.66ZM51.0753 14.48C50.7686 14.7067 50.3886 14.88 49.9353 15C49.4953 15.1067 49.0286 15.16 48.5353 15.16C47.2553 15.16 46.262 14.8333 45.5553 14.18C44.862 13.5267 44.5153 12.5667 44.5153 11.3V6.88H42.8553V4.48H44.5153V1.86H47.6353V4.48H50.3153V6.88H47.6353V11.26C47.6353 11.7133 47.7486 12.0667 47.9753 12.32C48.2153 12.56 48.5486 12.68 48.9753 12.68C49.4686 12.68 49.8886 12.5467 50.2353 12.28L51.0753 14.48ZM63.6667 4.24V15H60.7067V13.72C60.2934 14.1867 59.8001 14.5467 59.2267 14.8C58.6534 15.04 58.0334 15.16 57.3667 15.16C55.9534 15.16 54.8334 14.7533 54.0067 13.94C53.1801 13.1267 52.7667 11.92 52.7667 10.32V4.24H55.8867V9.86C55.8867 11.5933 56.6134 12.46 58.0667 12.46C58.8134 12.46 59.4134 12.22 59.8667 11.74C60.3201 11.2467 60.5467 10.52 60.5467 9.56V4.24H63.6667ZM72.9172 4.08C73.9172 4.08 74.8239 4.31333 75.6372 4.78C76.4639 5.23333 77.1105 5.88 77.5772 6.72C78.0439 7.54667 78.2772 8.51333 78.2772 9.62C78.2772 10.7267 78.0439 11.7 77.5772 12.54C77.1105 13.3667 76.4639 14.0133 75.6372 14.48C74.8239 14.9333 73.9172 15.16 72.9172 15.16C71.5439 15.16 70.4639 14.7267 69.6772 13.86V18.88H66.5572V4.24H69.5372V5.48C70.3105 4.54667 71.4372 4.08 72.9172 4.08ZM72.3772 12.6C73.1772 12.6 73.8305 12.3333 74.3372 11.8C74.8572 11.2533 75.1172 10.5267 75.1172 9.62C75.1172 8.71333 74.8572 7.99333 74.3372 7.46C73.8305 6.91333 73.1772 6.64 72.3772 6.64C71.5772 6.64 70.9172 6.91333 70.3972 7.46C69.8905 7.99333 69.6372 8.71333 69.6372 9.62C69.6372 10.5267 69.8905 11.2533 70.3972 11.8C70.9172 12.3333 71.5772 12.6 72.3772 12.6Z" fill="white"/>
</svg>
